# xmcd
#
# Track frame offsets: 
#        150
#        12966
#        28190
#        40282
#        52775
#        60699
#        72205
#        85454
#        95065
#        110850
#        122111
#        131234
#        143132
#        154124
#        162773
#        173624
#        186934
#        200977
#        211421
#        222239
#
# Disc length: 3115 seconds
#
# Revision: 0
# Processed by: cddbd v1.5.2PL0 Copyright (c) Steve Scherf et al.
# Submitted via: ExactAudioCopyFreeDBPlugin 1.0
#
DISCID=300c2914
DTITLE=Walter Brennan - Suppertime - The Very Best of Walter Brennan
DYEAR=2013
DGENRE=Country
TTITLE0=Old Rivers
TTITLE1=Dutchman's Gold
TTITLE2=Supper Time
TTITLE3=Mama Sang a Song
TTITLE4=Who Will Take Grandma
TTITLE5=Back To The Farm
TTITLE6=Cool Water
TTITLE7=Cotton Eyed Joe
TTITLE8=Gunfight at OK Corral
TTITLE9=Conversation With A Gun
TTITLE10=Waitin' for The Train
TTITLE11=Old Rivers' Trunk
TTITLE12=Just Three Letters For Christmas
TTITLE13=Boll Weevil
TTITLE14=Houdini
TTITLE15=Old Courthouse
TTITLE16=Steal Away
TTITLE17=The Farmer and The Lord
TTITLE18=Tribute to a Dog
TTITLE19=White Christmas
EXTD=
EXTT0=
EXTT1=
EXTT2=
EXTT3=
EXTT4=
EXTT5=
EXTT6=
EXTT7=
EXTT8=
EXTT9=
EXTT10=
EXTT11=
EXTT12=
EXTT13=
EXTT14=
EXTT15=
EXTT16=
EXTT17=
EXTT18=
EXTT19=
PLAYORDER=
